<svg fill="#090909" xmlns="http://www.w3.org/2000/svg" xmlns:xlink="http://www.w3.org/1999/xlink" viewBox="0 0 28 28" version="1.1" x="0px" y="0px"><title>Edit 625</title><desc>Created with Sketch.</desc><g stroke="none" stroke-width="1" fill="none" fill-rule="evenodd"><g fill="#090909" fill-rule="nonzero"><path d="M0.510106156,27.9382938 C0.223068781,27.9912819 -0.026362125,27.7368304 0.0323500625,27.4508803 L1.54140694,20.0993207 C1.58166766,19.9032296 1.82380747,19.8305749 1.9653435,19.9721109 L8.12564681,26.1322223 C8.26881375,26.2753893 8.19264138,26.5204072 7.99354438,26.5571502 L0.510106156,27.9382938 Z M18.8187809,2.4594405 L25.647495,9.28757903 L27.4389204,7.49628153 C28.1417079,6.793526 28.1417399,5.65407456 27.4389524,4.95131903 L23.1553927,0.667887187 C22.4526691,-0.034836375 21.3133136,-0.034836375 20.6105581,0.667855219 L18.8187809,2.4594405 Z M9.99452372,24.9400387 L24.1169807,10.8183492 L17.2884264,3.98976294 L3.16580959,18.1119641 L9.99452372,24.9400387 Z"></path></g></g></svg>